# xmcd
#
# Track frame offsets:
# 150
# 8567
# 25200
# 37352
# 51105
# 63037
# 73762
# 85330
# 97855
# 110032
# 135117
# 155640
# 175105
# 187545
# 205262
# 229187
#
# Disc length: 3373 seconds
#
#
# Revision: 4
# Processed by: cddbd v1.5.2PL0 Copyright (c) Steve Scherf et al.
# Submitted via: FreeRIP 2.944 
#
DISCID=c80d2b10
DTITLE=Various: Bob Dylan - Dylan Country
DYEAR=2004
DGENRE=Country
TTITLE0=Nashville Skyline Rag [Earl Scruggs and Bob Dylan]
TTITLE1=Girl From The North Country [Country Gentlemen]
TTITLE2=Don't Think Twice, It's Alright [Waylon Jennings]
TTITLE3=It Ain't Me Baby [Johnny Cash]
TTITLE4=I'll Be Your Baby Tonight [Hank Williams Jr]
TTITLE5=Love Minus Zero-No Limit [Buck Owens]
TTITLE6=You Ain't Goin' Nowhere [Byrds]
TTITLE7=If Not For You [Glen Campbell]
TTITLE8=Subettanean Homesick Blues [Tim O'Brien]
TTITLE9=Restless Farewell [Peter Ostroushko and Norman Blake]
TTITLE10=Heartland [Willie Nelson and Bob Dylan]
TTITLE11=When I Paint My Masterpiece [Emmylou Harris]
TTITLE12=Sign On The Window [Jennifer Warnes]
TTITLE13=One Too Many Mornings [Jerry Jeff Walker]
TTITLE14=Boots Of Spanish Leather [Nanci Griffith]
TTITLE15=Forever Young [Kitty Wells]
EXTD=
EXTT0=
EXTT1=
EXTT2=
EXTT3=
EXTT4=
EXTT5=
EXTT6=
EXTT7=
EXTT8=
EXTT9=
EXTT10=
EXTT11=
EXTT12=
EXTT13=
EXTT14=
EXTT15=
PLAYORDER=
